<svg xmlns="http://www.w3.org/2000/svg" viewBox="0 0 623.48 172.65"><g id="Layer_2" data-name="Layer 2"><g id="Layer_1-2" data-name="Layer 1"><path id="path10" d="M623.48,172.64H0V76.49l28.12-.38c.15-.14.27-2.56.37-2.71.67-1,.15-2.34.75-3.56a8.47,8.47,0,0,1,4-1.24,4.13,4.13,0,0,1,.18-1.55.53.53,0,0,1-.18-.47,6.1,6.1,0,0,1,5,0v.62c-.17,0-.17,0-.17.16a3.41,3.41,0,0,1,.51.77,19.64,19.64,0,0,1,5.34-.77c0,.31.69,1.09.35,1.4,0,6.18-.35,15-.35,19.86.83-.74,4.39-4.58,3.1-5.74,0-.16,0-.16.18-.16h-.35c0-.16,0-.31.17-.31C46.65,82,45,81,45.43,81c-.17-.31-.34-.46-.34-.62a2.12,2.12,0,0,1,.34-.93,4.79,4.79,0,0,1,1.38-1.09,3.29,3.29,0,0,1,.86-1.23V73.57c0-.16,0-.16.18-.16L48.36,72c-.17-.32-.34-.47-.34-.63,0-.46,0-1.55.69-1.55a.6.6,0,0,0-.35-.15,1.62,1.62,0,0,1,.86-.62l-.17-.16c.17,0,.35.16.69.31h-.17a2.41,2.41,0,0,1,.51.62v1.24c-.86,0-.34,1.4-.34,1.87,0,0,.52.31,0,.31a1.4,1.4,0,0,1,.69.16c.17-.47.52-.94,1-.94,0-2.78,2.17-4.75,4-6.36a1.72,1.72,0,0,1,.18-.93l-.52-.93a.56.56,0,0,1-.17-.47c0-.16.17-.16.34-.16l-.17-.15c.17-.16.69-.62.17-.62.52-.47,0-1.71.35-2-.52,0-.52-.93-.52-.93a2.81,2.81,0,0,1,.86-1.09.67.67,0,0,1,.52.16,3.51,3.51,0,0,1,.52.77l.17.16A26.84,26.84,0,0,0,59.9,58.2a4.22,4.22,0,0,1-.34-1.4c0-.93.69-.46,1.21-.93a4.22,4.22,0,0,1,.34-1.4c-.52,0,.35-1.7,1-1.08a2.18,2.18,0,0,1,1.73-1.09c.76-1.38.15-1.2.69-2.64-.52,0-.18-1.09-.18-1.09s0-.15.18-.15V48.1a3.13,3.13,0,0,1,.86.32v1.24h-.35v2.48h.35a2.11,2.11,0,0,1,.51.62c0-.16,0-.16.18-.16a.65.65,0,0,1,.51.16c0,.46,1.38.31,1,.62a3.38,3.38,0,0,1,.86.31s-.52.47.17.47c-.69,0,0,1.24-.35,1.24v.46c1.21,0,.87,1.86.87,2.48a21.81,21.81,0,0,0,2.92,1.4c0-1.58,1.9-1.64,1.9,1.55h-.17a1.79,1.79,0,0,0,.17.93c1.26,2.28-.35,2.33-.35,3.26.91.82,1.21.63,1.73-.31,0-.15,0-.15.17-.15,0-4.1-.17-8.2-.17-12.26h-.17c-.45-1.21-.13-1.2-.87-1.87,0-.62,2.17-1.52,2.42-1.09,0-2.51.17-4.77.17-6.67-.17,0-.17.16-.17.32,0,0-6.93-4.66.34-4.66a1.1,1.1,0,0,1-.17-.62v-.31c0-5.77,5.51-6.25,5.51-6.68-1.71-.77-2.69-.88.86-2.48a42.2,42.2,0,0,0-.69-6.82,4.37,4.37,0,0,0-1-.78h0c-.65-.59-.36-.91.86-2a.35.35,0,0,1,.34-.31c-3.38-1.22.82-4.8,2.93-5.43a5.34,5.34,0,0,1-.17-1.55c-1.45,0,.2-1.86,1.07-2.26,0-.44.52-3.63-.38-3.8a1.48,1.48,0,0,0-.69-.15C86.8,5.62,87,3.18,87,2.32H85.74c-.17-.15-.34-.31-.52-.31.35,0,1.21-.62,1.55-.31a.47.47,0,0,1-.17-.31A2.59,2.59,0,0,1,87,.15.68.68,0,0,1,87.46,0c-.18.34-.32,1.1,0,1.4h.87A1.1,1.1,0,0,0,88.5,2c-1.65-.74-1.12,2.33-.86,3.26.44.4.48.15,1,.15-1.36,0-.86,2.17-.86,4,0-.22,1.38-.13,1.38,2.49a3.1,3.1,0,0,0-.69.93c1.67,0,3.62,3.21,3.62,6-.18,0-.18,0-.18.16s-.87.07-.87.38a1.86,1.86,0,0,1,1.56,1.63c0,.71.24-.06-.34.47-1.24,0-1.21,5.66-1.21,7.45,2.86,0,.34,2.34.34,2.64,2.86,2.57,5.52.9,5.52,7.14,0-.24.17-.27.17.15,3.87,3.49.17,5-.41,4.45-.45.83-.59,5.23.06,6.41l.35.32c.86,0,.69-.32,1.21.15.86,0,.86,1.09,1,1.09-.54.49-1.42,1.33-1.42,2.07-1.45,3.27-1.54,19.28.39,22.76.7,0,.86,1.2.86,1.87,7.94-1.79,1.91-.47,9.89-.47a.55.55,0,0,1,.17-.47,15.3,15.3,0,0,1-1.38-2.33c-.17,0-.17,0-.17.16-.17-.31-.35-.46-.35-.62s10.14-1.73,11.37-.62a.55.55,0,0,0-.17.47l.17.15c-.69,0-1.2,2.33-1.55,2.33a.52.52,0,0,0,.17.46.45.45,0,0,1-.17-.31v.78a1.46,1.46,0,0,1,.69.15c1.26-.57,1.63-1.08,3.27-1.08a.69.69,0,0,1,.52.15c.17.31.34.62.52.93a12.13,12.13,0,0,1,2.41-.15v-.47c5.6-2.52,16.55-20.39,17.74-25.76a6.18,6.18,0,0,1,.86-1.39c.17-.47.35-.94.52-1.4a.54.54,0,0,1,.34.16c0,.62.35,2.94,1.21,2.94-.52,0-.34.16,0,.16,1.2,4.32,6,9.78,8.27,13.81.34.31.86.62,1.38,1.09a4.6,4.6,0,0,1,1.2.31,6.18,6.18,0,0,0,.86,1.39c-.17,0-.17,0-.17.16l.17.16c-.17,0-.17.15-.17.31,0,.62,0,2.48.69,2.48-.17,0-.17,0-.17.16,1.46,1.32,3.66,5,5.16,5.59,0,0,9.91,1.5,11.24,1.84,1-1,2-2,3.05-3,0-.93,1.16-.93,1.67-.46a8.28,8.28,0,0,1,1.55.46.49.49,0,0,1,.38-.12s-.38-1.27.13-.81c0-.46,1.29-.35,1.68-.35.13,1.39.13.93,1.29,1.28,1.57,1.07,3.17,2,4.76,3a7,7,0,0,1,1.68-.23c.64.12,1.29.35,2.06.58V77.19a.67.67,0,0,1,.39-.23,3.72,3.72,0,0,1,1,.11,29.19,29.19,0,0,1,3.22-.23c0-.11,0-.23.13-.23a5.14,5.14,0,0,0-.39-.81,3,3,0,0,1,1-.58,3.94,3.94,0,0,1,3-1.85c-.78-.71.43-5.67.64-6,.13-.12.26-.12.52-.12,0,1.2.42,5.28,1,6.16.91,1.38,3.89,1.11,3.89,2.66-.64.58-.13,1.28-.13,2a.5.5,0,0,1,.39.12c.39-.46.9-1,1.42-.58.9,0,2.45-.12,3.09.46,1.29,0,2.06,1.4,2.58,2.32.26,0,.26-1.27,1.16-1.27,0-.24,0-.35.13-.47a1.05,1.05,0,0,0-.52-.12v-.57c.65-.58.26-1.4.52-2,.13,0,.25.12.51.23v1.51c1.16,0,.39.81.39,1.4a7.42,7.42,0,0,1,1,.46,19.26,19.26,0,0,0,.37,1.93h.7c0-.11,0-.22.22-.42a15.23,15.23,0,0,1,2.45-.23c-.13-1.63-.13-3.25-.13-4.76-.65-.12-.9-.23-.9-.7a1.85,1.85,0,0,1,.77-.23v-3a8.73,8.73,0,0,0-.39-.93,1.1,1.1,0,0,1,.65-.23,5.87,5.87,0,0,1,.9-1.51c.39-1.74-.13-2.2,1.93-2.44,1.08-2.43,3.2-3.58,5.28-4.53v-2.2a.69.69,0,0,1,.52-.23,1.75,1.75,0,0,1,.77-.12,18.69,18.69,0,0,1-.26-2.55,1.46,1.46,0,0,0-.64-.12v-.46c0-.46.39-.46.52-.59a3.5,3.5,0,0,1,1.28-3c.39,0,.65-.7.65-1a2.55,2.55,0,0,1,.51-.69c0-.24-1-4.88.39-3.6a31.14,31.14,0,0,0,.13,3.48c.13.46.26,1,.39,1.63.64,0,1.16.57,1.67.81l.78,2.43a2.08,2.08,0,0,0,.64.35v.35a3.1,3.1,0,0,0-.64.7v1.17a2.75,2.75,0,0,0,.25.81,5.61,5.61,0,0,1,1.29.11,11.49,11.49,0,0,0,.26,2c2.93,0,5.25,2.62,6.7,5.23.39.11.77.23,1.29.35a12.22,12.22,0,0,0,.51,1.62l.91.82c.38.11.77.34.77.81-1,0-.26,2.67-.26,3.13a1.52,1.52,0,0,1,.65.12,1.71,1.71,0,0,0,.25.58l-.38.7a.69.69,0,0,0-.52.23,32.71,32.71,0,0,0,.65,3.48c0-.12,0-.12.12-.12a82.1,82.1,0,0,1,9.28.23,1.61,1.61,0,0,0,.52.35.4.4,0,0,0,.13.35,8.61,8.61,0,0,1,1-1.86c1.29-.23,2.57-.35,3.86-.46V73.82a11.19,11.19,0,0,1-.64-1.16c4.25-5.74,6.54-3.37,13.66-3.37a5,5,0,0,1,1.16-.57c.77,0,1-.82,1.16-1.4a1.09,1.09,0,0,1,.64-.11c.26.34.52.69.9,1.15a2.2,2.2,0,0,1,2.19,1.51c.78,0,4.51,0,5-.46a5.38,5.38,0,0,1-.26-1.28,1.06,1.06,0,0,1-.51-1.39c.38-.35,1.41-1.28,2.06-1.28a22.64,22.64,0,0,1,.13-3c1.29,0,.64,2.9,1.29,3.49a1.39,1.39,0,0,1,1.54,1.15h3.35a31.05,31.05,0,0,1-.13-3.48l-1-.92c-.38-.35-.77-.59-1-.82.13-.11.26-.23.39-.23a7,7,0,0,1,1.67-.23H294c-.13-.23-.26-.35-.26-.46l1.16-.7.39-.35a6.34,6.34,0,0,1,.13-1.62c-.13-1.39-.26-2.67-.26-4-.26-.46-1-1-.78-1.63,0-.11.13-.11.26-.11a1.54,1.54,0,0,1,.26-.7,1,1,0,0,1,.52-.46,6.81,6.81,0,0,1-.52-.81,5.51,5.51,0,0,1,.77-.81.49.49,0,0,0-.39-.12,5.79,5.79,0,0,1,.39-.82c.13-.69.26-1.27.39-1.85V45h.52a15.35,15.35,0,0,0-.13,2.44,12.83,12.83,0,0,0,.64,2.09c-.13,0-.26,0-.26.12h.78c.13,0,.26.12.38.23a1.13,1.13,0,0,0,.13.58,1.69,1.69,0,0,0-.38.46,7.45,7.45,0,0,1,1.54-.23,17,17,0,0,0-1.16-1.62v-.7a19.56,19.56,0,0,1,2.45-2V41.32c-.26-.23-.52-.46-.77-.7a5.51,5.51,0,0,1,.77-.81c-.65-.46-.9-.7-.9-1.39a2.23,2.23,0,0,1,.52-.93,5.6,5.6,0,0,1,.77-.82,2.37,2.37,0,0,1,.9-.58c-.13-.58-.65-1.74.52-1.74a1.55,1.55,0,0,1,.25-.81V28.2c0-.46-.51-1.74-.13-2.09a1.6,1.6,0,0,1-.25-.7c.38,0,.25-.23.64.12v1.28a.5.5,0,0,1,.39.12.57.57,0,0,0-.26.46c-.13,0-.13,0-.13.12.26,2-.13,4.53.52,6.5,1,0,.77.81.9,1.5.77.71,1.55,1.4,2.32,2.21a2.58,2.58,0,0,0,.13.93l-.39,1.05.77.35-.39,1c-.25,0-.38,0-.51.12,0,1.62,0,3.25.13,4.88v.46a3.34,3.34,0,0,1,1.67,1.51,2.61,2.61,0,0,0,.13.93,1.79,1.79,0,0,1,.52-.35c0-.46-.39-.58,0-1.28a37,37,0,0,1,.52-4h.51a9.21,9.21,0,0,0-.26,2l.39,2.09.39.7a1.85,1.85,0,0,0-.77.11c0,.35.25.35.64.35a3.2,3.2,0,0,0,.65.7.78.78,0,0,0,.13.46c-.26.46-.78.93-.26,1.39H311c0,.7.27.7.91.93a.36.36,0,0,0,.13.24c-.26.34-.65.46-.65.93a3.17,3.17,0,0,0-.65.69.89.89,0,0,0-.25.58c.13,1.75.25,3.49.38,5.23.13.23,1.16.81.91,1-.26,0-.65.23-.39.46h.52c0-.12-.26-.23.12-.23,0,.35,1,.58,1.29.58a.84.84,0,0,0-.25.58L313,62.1a2.9,2.9,0,0,0-1,.58.77.77,0,0,0-.52.23c0,.24-.13,2.56.39,2.09v-.23c.13-.11.64-.58.89-.35,5.65,0,16.69-1.14,21.91.24a.5.5,0,0,1,.39-.12c2.56,1.39,4,6.77,7.4,5.69.05-1.93.11-3.86.22-5.79-.27-.32-.55-.65-.77-1-.23-.07-.23-.07-.33-.77-.89-.84-.89-.84-.83-1,.61-1,.49-1.28,1.77-1.93,7.47-6.44,13.65-15,20.24-22.66v-.52c-.74,0-.37-.45.1-.64a3.56,3.56,0,0,1-.1-.65c.83.11,1.49-.22,1.49.84h-.39a2,2,0,0,0-.11.65c1.93,2,1.93,2,2.32,2.06-.11-.51-.22-1-.28-1.54a9.42,9.42,0,0,1,1.22-.84,10.76,10.76,0,0,1,.44-1.42,3.05,3.05,0,0,1-.44-1.8.69.69,0,0,1,.33-.13,51.17,51.17,0,0,0,.23-7.73c-.61-.64-.61-.64-.72-1.09l.49-.39a1.13,1.13,0,0,1,.23-.45,3.73,3.73,0,0,1,1.44-2.77,1.68,1.68,0,0,1,.11-1.28c.05-.52.1-1,.16-1.48.27-1.93.27-1.93.55-2.26a3.38,3.38,0,0,1,.39,2c.11.64.28,1.29.44,1.93a3.83,3.83,0,0,0,.11.65c.17,1.15,1,2,1.33,3.3.06.13.16.32.27.51.34.2.34.2.56,1a5.18,5.18,0,0,0-.83.45c-.17,2.75-.29,6.13.6,8.73a4,4,0,0,0-.38.84,3,3,0,0,0,.66,2.38c.33.32.72.52.72,1.1a3.37,3.37,0,0,0-.72.64c0,1.67.06,3.43.16,5.09,1.86,1.61,8.66,8,10.62,8V49l.5-.2a1.16,1.16,0,0,1-.39-1,1.89,1.89,0,0,1,.61-.13c.16-.9.33-1.8.49-2.64a1,1,0,0,1,.44-.13c.11.84.23,1.68.34,2.58a2.68,2.68,0,0,0,.38.19c.17,1.74.34,3.54.56,5.35,2.95,1,5.77,3.66,8.13,5.6.72,0,1-.39,1.49-1-.28-.45-.28-.45-.22-.77.27-1.67.27-1.67.33-6.7a1.84,1.84,0,0,1,.61-.12c.05,2.25.1,4.5.16,6.82v1.22h.39c.06,1,.11,2.07.16,3.09l1.33.19c-.44,1.55-.44,1.55-.83,2.07.19,1.3-.52,3.37.06,4.37a2.63,2.63,0,0,1,.72-.32c.22.84-.39,2.32-.61,3.16.14,2.41-.15,7.15,1.33,8.88a3.77,3.77,0,0,1,.33-.51,9.92,9.92,0,0,0,.66,2.77H401v.45l1.48.19a12.18,12.18,0,0,1-.05-1.35.85.85,0,0,1,.44-.13l.05.6a1.72,1.72,0,0,1,.47.06c.39-1,.69-1,1.48-1a68.86,68.86,0,0,0,.55-7.42H406c.22,2.41.37,4.08.48,5.36.36,0,.42-.13.81-.13V77h.66c.77-2.26,2.05-4.44,4.15-5.41a12.77,12.77,0,0,0,.49-4.76c.44-.58.44-.58,1.33-2.9-.06-1-.11-1.93-.17-2.83h.56c-.06,1-.11,2.06-.11,3.15a9,9,0,0,0,.05,1.16c1.06,1.42,1,2.12.72,4,.77,1.29.34,2.19,1.77,2.84a14.72,14.72,0,0,1,2.55,3.28c.17.45.33,1,.55,1.48,1.88.19,2-1.09,2.93,1.28h.56c.05-.39.11-.77.17-1.09.55.13,1.1.26,1.71.45.05-1,.11-1.86.17-2.77h.55c.06,1.94.06,1.94.27,2.38.44.13.89.26,1.39.39,0-.58,0-1.16.05-1.73a6.83,6.83,0,0,1,.28-2.58c.05-6.24.11-12.49.22-18.67a1.37,1.37,0,0,1-.22-.38c-2.36-2.75-.34-2.52.77-2.19-.43-15.08.69-11.62-.22-17.13-.39-.45-.39-.45-.56-1.41-.45-.8-.13-2.66-.05-3.61,1.07,0,2.13.07,3.2.07l.56-.2v-.77a7.38,7.38,0,0,1-.72-.19v-.71c.05-.06.16-.06.27-.06a.26.26,0,0,1,.06-.2v-.31c.55-.26.84-.41,1.45-.66.05-2.32.37-4.75.43-7h.33c0,2.32.28,4.78.28,7.16.72.19,1.16.31,1.93.57v1.41a5.6,5.6,0,0,0-1,.13,5,5,0,0,0-.17.51l3.6.39c.13,1.06.24,2.11.44,3.15a6.57,6.57,0,0,1-.72,2.38.37.37,0,0,0-.11.2c-.72.84-.33,13.51-.39,16.28,2.2,0,1.16,2.07.56,3.48V74.25a7.07,7.07,0,0,1,.49.7c-.22.26-.22.26-.22.77V77a2.06,2.06,0,0,0,.11.45,8.16,8.16,0,0,1,1.27-.25v.45h.77v-.45a10.72,10.72,0,0,0,4.2,1.09v-.45A1.28,1.28,0,0,0,446,77.2a5.25,5.25,0,0,1,.5.65c.94.06.94.06,1.27.32.17-.6.18-.69.77-.52v-.52c2.27.46,2.27.46,3.32.33v-.9h.72l.17,1.09h.55V77a3.6,3.6,0,0,1,.39-.84v-.26h.55c.06-1.28.11-2.57.17-3.86h-.34c.17-1.61.39-3.16.61-4.7.06.58.17,1.16.28,1.74,1.32-.9.94-2.9.83-4.44a5.27,5.27,0,0,1-.06-1,1.57,1.57,0,0,1,.27-.19c.17-.71.39-1.36.61-2a2.32,2.32,0,0,0,.39.2c.06.83,0,1.22.5,1.8.05,1.67.11,3.41.22,5.15l.77.19V67.35a1.46,1.46,0,0,1,.39.13,65.11,65.11,0,0,1-.06,7.4h.39c.06-1.16.11-2.32.17-3.48h.55c.28,2.32.17,4.25,1.27,6.19.11-.2.11-.2,2.44-.13a2.1,2.1,0,0,1,.11-.65c.55,0,.6.26,1,.71h1.55c.83-1.61,1.05-4.32,1.22-6.12h.55a3,3,0,0,0,.17,1.74c.16,1.23.33,2.45.55,3.67a3.61,3.61,0,0,1,.17.45c.27.13.6.26.93.39h5.53a.67.67,0,0,1,.39-.13V77h.78c.1,1.22.22,2.44.33,3.66h.55V81h2.6a12.9,12.9,0,0,1,.27-1.35,3.37,3.37,0,0,1,.83-.07c.06.4.11.78.17,1.16h3.43v-.06c0-.2,0-.2.66-.06.22,1.22.5,2.44.77,3.66a1.84,1.84,0,0,1,.5.26c2.39-1-1.3.39,1.37.39a7.61,7.61,0,0,1,1.16.12,5.86,5.86,0,0,0,2.16.33c0-.78,0-1.49.05-2.19a8.53,8.53,0,0,1,1.33-.07V84.4h1.66c.39-.32.39-.32,1.27-.52a7.33,7.33,0,0,1,1.22-.45,7.45,7.45,0,0,1-.11-1.09h.39c.05.32.1.71.16,1.09h.44c0-.06.06-.12.11-.19,0-.71.06-1.36.11-2,.17-.06.33-.13.55-.19,1.27-1,2.21-.58,3.65-.45.17-.32.33-.64.5-.9a6.26,6.26,0,0,1,1.11-.13c0,1.1,0,2.26.05,3.41,3.83,1.4,3.68-.6,5.84-.32a1.48,1.48,0,0,0,.06,1.1.92.92,0,0,1,.27.12c.19-1.51.43-2.93.72-4.44v-.32a5.69,5.69,0,0,1,2.38-.25c-.06.19-.11.38-.17.57l.56.45h.39c1.33-2.73,2.33-5.59,3.59-8.36a.18.18,0,0,0-.17-.07c.06-1,.17-1.93.28-2.83h.55v2.06c1.52-.21,3.1-.65,4.59-.77a6.33,6.33,0,0,1,.39-1.09c2.12-.16,4.42.27,6.41-.39a5.69,5.69,0,0,1-.22-.78,3.64,3.64,0,0,0,1.55-.83h0l.13-21.56c-.11-.65-1-.32-1-1.36a3.62,3.62,0,0,1,.89-.32l.66-2.12c-.06-.77-.11-1.55-.17-2.25a.59.59,0,0,1,0-1.17,1.43,1.43,0,0,1,.17-.31c0-.71.06-1.36.11-2a3.88,3.88,0,0,1,.83-.13,2.52,2.52,0,0,0-.11.71c.16.45.33.9.55,1.42a3.72,3.72,0,0,1,.67.51c2.79-.93,2.14-.68,3.65-4.19a63.39,63.39,0,0,0,1.21-8.75c-1-1.16-1.6-1.29-.55-2.51a9.1,9.1,0,0,1,.11-1.16v-.51c-.44-.46-1.05-.65-1.05-1.42a6.56,6.56,0,0,1,1.21-.51h.11a4.53,4.53,0,0,1,1.71-2.51c.5-1.87.07-4.51-.1-6.44a2,2,0,0,1,.38-.38,6.65,6.65,0,0,1,2-2.84c0-.77.06-1.54.11-2.25a1.36,1.36,0,0,1-.27-.19,5.23,5.23,0,0,1,.22-2.26,1.46,1.46,0,0,1,.5.06c.22.65.6,2.13.16,2.65-.1,2.76,1.27,1.67,2,3.72a.85.85,0,0,1,.44.65.73.73,0,0,0,.22.2,2,2,0,0,0-.27.64c-.06,1.73-.11,3.47-.17,5.28.89.77.89.77,1.05,1.28a8.05,8.05,0,0,0,.56,1l1.71.39a4.2,4.2,0,0,0,.11.77,10.54,10.54,0,0,0-.89.58v1.61c.17,0,.17,0,.56,1.67-.93,1.8.13,9.74.94,11.71a2.57,2.57,0,0,1,.66.13c.06.39.11.84.17,1.29a8.81,8.81,0,0,0,3.59,3.22V37.41c-.55-1.22-.55-1.22-.55-1.81,0-.12,0-.19.06-.25.22-1,.1-2.32,1.27-2.19,0,.58,0,1.22.1,1.87.61.26.61.26.78.57V36a4,4,0,0,0-.39.91c-.06.57-.11,1.15-.17,1.8a4.72,4.72,0,0,1,1.11,2.44,6.89,6.89,0,0,0,.77.39,1.78,1.78,0,0,1-.89.84v.51h.39v.46h-.55q.08,8.88.16,17.77c.17,0,.17,0,.17-1.68h.39v5.15h.39c0,2.93.16,5,.16,0H563v.65c1.21,0,4.22,20.49,5.22,20.83a7.56,7.56,0,0,1-.22-.84c.39-.13.39-.13,1.22.13,1.1-2,5.14-4.5,6.74-5.8a4.81,4.81,0,0,1,.33-.45,2.56,2.56,0,0,0-.16-.45c.12,0,.16-.72.16-2.19a.78.78,0,0,1,.39-.06H577c.13,1.39.26,2.2.72,2.25,2.37-.39,4.83-1.8,7.57-1.8.11-.26.11-.26.89-.32,1.1-1,.11-2.19.72-3.48.61,0,.61,2.07.61,2.51a26.4,26.4,0,0,0,2.1,1.74c.94,0,1.88-.32,2.32.84h.17c1.7.11,3,0,4.81,0,0-.19,0-1.71,0-1.84h26.54v96.35h0ZM433.8,40.49c-1.39-.3-1.44.24-1.77.39-.78,1.69.18,3.12,1.61,2.9.85-.41,1.29-.84.16-3.29ZM384.58,43c0-1-.16-1,.78-1.29a9.31,9.31,0,0,0-.23,1.29Zm-15.24-29.9c-.17-.06-.46-3.32-.62-3.39a5.11,5.11,0,0,1,.33-2h.44a25.64,25.64,0,0,1-.15,5.38ZM83.5,45.32a4.76,4.76,0,0,1-.34-4.81c-.35-2.18,5.72-3.22,7.4,0,.36.26.32,4.1-.68,4.81-2.3,2.65-6.38.18-6.38,0ZM201,65.68h.52a3.94,3.94,0,0,0,.13,1.17c-.87,0-1.17-.69-.65-1.17Zm-116.53-24c1.9-1.71,2.15-3.16,4.92.56C88.8,46.72,84.44,45.05,84.44,41.65ZM294,66.85c-.13-.24-.39-.35,0-.35Z"/></g></g></svg>