<svg width="51" height="51" viewBox="0 0 51 51" fill="none" xmlns="http://www.w3.org/2000/svg">
<path d="M22.727 18.9911V21.9173H20.585V25.4936H22.727V36.125H27.13V25.4936H30.0837C30.0837 25.4936 30.3621 23.7788 30.496 21.9024H27.147V19.4586C27.147 19.091 27.6272 18.6001 28.1032 18.6001H30.5002V14.875H27.2383C22.6186 14.875 22.727 18.4556 22.727 18.9911Z" fill="white"/>
<path d="M12.75 8.5C11.6228 8.5 10.5418 8.94777 9.7448 9.7448C8.94777 10.5418 8.5 11.6228 8.5 12.75V38.25C8.5 39.3772 8.94777 40.4582 9.7448 41.2552C10.5418 42.0522 11.6228 42.5 12.75 42.5H38.25C39.3772 42.5 40.4582 42.0522 41.2552 41.2552C42.0522 40.4582 42.5 39.3772 42.5 38.25V12.75C42.5 11.6228 42.0522 10.5418 41.2552 9.7448C40.4582 8.94777 39.3772 8.5 38.25 8.5H12.75ZM12.75 4.25H38.25C40.5043 4.25 42.6663 5.14553 44.2604 6.73959C45.8545 8.33365 46.75 10.4957 46.75 12.75V38.25C46.75 40.5043 45.8545 42.6663 44.2604 44.2604C42.6663 45.8545 40.5043 46.75 38.25 46.75H12.75C10.4957 46.75 8.33365 45.8545 6.73959 44.2604C5.14553 42.6663 4.25 40.5043 4.25 38.25V12.75C4.25 10.4957 5.14553 8.33365 6.73959 6.73959C8.33365 5.14553 10.4957 4.25 12.75 4.25Z" fill="white"/>
</svg>
