<svg width="51" height="51" viewBox="0 0 51 51" fill="none" xmlns="http://www.w3.org/2000/svg">
<path d="M36.125 27.9015V35.7577H31.5711V28.4264C31.5711 26.5862 30.9124 25.3303 29.2634 25.3303C28.0054 25.3303 27.2552 26.176 26.9259 26.9963C26.8069 27.2895 26.775 27.6975 26.775 28.1055V35.7577H22.219C22.219 35.7577 22.2806 23.3434 22.219 22.0578H26.775V23.9979L26.7453 24.0425H26.775V23.9979C27.3806 23.0629 28.4601 21.7348 30.8805 21.7348C33.8767 21.7348 36.125 23.694 36.125 27.9015ZM17.4526 15.4512C15.895 15.4512 14.875 16.4754 14.875 17.8184C14.875 19.1359 15.8652 20.1878 17.3931 20.1878H17.4229C19.0124 20.1878 20.0005 19.1338 20.0005 17.8184C19.9708 16.4754 19.0124 15.4512 17.4526 15.4512ZM15.1449 35.7577H19.7009V22.0578H15.1449V35.7577Z" fill="white"/>
<path d="M12.75 8.5C11.6228 8.5 10.5418 8.94777 9.7448 9.7448C8.94777 10.5418 8.5 11.6228 8.5 12.75V38.25C8.5 39.3772 8.94777 40.4582 9.7448 41.2552C10.5418 42.0522 11.6228 42.5 12.75 42.5H38.25C39.3772 42.5 40.4582 42.0522 41.2552 41.2552C42.0522 40.4582 42.5 39.3772 42.5 38.25V12.75C42.5 11.6228 42.0522 10.5418 41.2552 9.7448C40.4582 8.94777 39.3772 8.5 38.25 8.5H12.75ZM12.75 4.25H38.25C40.5043 4.25 42.6663 5.14553 44.2604 6.73959C45.8545 8.33365 46.75 10.4957 46.75 12.75V38.25C46.75 40.5043 45.8545 42.6663 44.2604 44.2604C42.6663 45.8545 40.5043 46.75 38.25 46.75H12.75C10.4957 46.75 8.33365 45.8545 6.73959 44.2604C5.14553 42.6663 4.25 40.5043 4.25 38.25V12.75C4.25 10.4957 5.14553 8.33365 6.73959 6.73959C8.33365 5.14553 10.4957 4.25 12.75 4.25Z" fill="white"/>
</svg>
