<svg width="624" height="343" viewBox="0 0 624 343" fill="none" xmlns="http://www.w3.org/2000/svg">
<g clip-path="url(#clip0_1107_2209)">
<path d="M624 343H0V246.642L28.12 246.261C28.27 246.12 28.39 243.696 28.49 243.545C29.16 242.543 28.64 241.201 29.24 239.978C30.4485 239.235 31.8239 238.808 33.24 238.736C33.201 238.212 33.2621 237.684 33.42 237.183C33.3534 237.126 33.3021 237.052 33.2707 236.97C33.2392 236.888 33.2287 236.799 33.24 236.712C34.0261 236.358 34.8782 236.175 35.74 236.175C36.6018 236.175 37.4539 236.358 38.24 236.712V237.333C38.07 237.333 38.07 237.333 38.07 237.494C38.2741 237.726 38.4457 237.986 38.58 238.265C40.3161 237.763 42.1131 237.503 43.92 237.494C43.92 237.804 44.61 238.586 44.27 238.896C44.27 245.088 43.92 253.926 43.92 258.795C44.75 258.054 48.31 254.206 47.02 253.044C47.02 252.884 47.02 252.884 47.2 252.884H46.85C46.85 252.723 46.85 252.573 47.02 252.573C46.65 252.162 45 251.16 45.43 251.16C45.26 250.85 45.09 250.699 45.09 250.539C45.1283 250.206 45.2448 249.887 45.43 249.607C45.8188 249.161 46.2867 248.791 46.81 248.515C46.9981 248.043 47.2924 247.622 47.67 247.283V243.716C47.67 243.555 47.67 243.555 47.85 243.555L48.36 242.143C48.19 241.822 48.02 241.672 48.02 241.511C48.02 241.051 48.02 239.958 48.71 239.958C48.6127 239.872 48.4899 239.819 48.36 239.808C48.569 239.51 48.8719 239.291 49.22 239.187L49.05 239.027C49.22 239.027 49.4 239.187 49.74 239.337H49.57C49.7735 239.514 49.9459 239.724 50.08 239.958V241.201C49.22 241.201 49.74 242.604 49.74 243.074C49.74 243.074 50.26 243.385 49.74 243.385C49.9799 243.378 50.2175 243.434 50.43 243.545C50.6 243.074 50.95 242.604 51.43 242.604C51.43 239.818 53.6 237.844 55.43 236.231C55.4018 235.91 55.4641 235.587 55.61 235.299L55.09 234.367C55.0272 234.307 54.9792 234.234 54.9497 234.152C54.9202 234.07 54.91 233.983 54.92 233.896C54.92 233.736 55.09 233.736 55.26 233.736L55.09 233.586C55.26 233.426 55.78 232.965 55.26 232.965C55.78 232.494 55.26 231.251 55.61 230.961C55.09 230.961 55.09 230.029 55.09 230.029C55.281 229.598 55.5767 229.223 55.95 228.937C56.043 228.925 56.1374 228.934 56.227 228.962C56.3165 228.989 56.3993 229.035 56.47 229.097C56.6767 229.33 56.8516 229.589 56.99 229.869L57.16 230.029C58.1068 229.513 59.0218 228.941 59.9 228.315C59.7073 227.871 59.5922 227.396 59.56 226.913C59.56 225.981 60.25 226.452 60.77 225.981C60.8022 225.497 60.9173 225.023 61.11 224.578C60.59 224.578 61.46 222.875 62.11 223.496C62.2873 223.186 62.5377 222.924 62.8393 222.734C63.1409 222.544 63.4845 222.43 63.84 222.404C64.6 221.021 63.99 221.201 64.53 219.759C64.01 219.759 64.35 218.667 64.35 218.667C64.35 218.667 64.35 218.516 64.53 218.516V218.196C64.8308 218.26 65.1206 218.368 65.39 218.516V219.759H65.04V222.244H65.39C65.5981 222.416 65.7712 222.627 65.9 222.865C65.9 222.704 65.9 222.704 66.08 222.704C66.1715 222.693 66.2643 222.702 66.3522 222.73C66.4401 222.757 66.5212 222.803 66.59 222.865C66.59 223.326 67.97 223.175 67.59 223.486C67.8894 223.55 68.1787 223.655 68.45 223.797C68.45 223.797 67.93 224.268 68.62 224.268C67.93 224.268 68.62 225.51 68.27 225.51V225.971C69.48 225.971 69.14 227.835 69.14 228.456C70.0773 228.995 71.0533 229.464 72.06 229.859C72.06 228.275 73.96 228.215 73.96 231.412H73.79C73.7623 231.732 73.821 232.054 73.96 232.343C75.22 234.628 73.61 234.678 73.61 235.61C74.52 236.431 74.82 236.241 75.34 235.299C75.34 235.149 75.34 235.149 75.51 235.149C75.51 231.041 75.34 226.933 75.34 222.865H75.17C74.72 221.652 75.04 221.662 74.3 220.991C74.3 220.37 76.47 219.468 76.72 219.899C76.72 217.384 76.89 215.12 76.89 213.216C76.72 213.216 76.72 213.376 76.72 213.536C76.72 213.536 69.79 208.867 77.06 208.867C76.9429 208.682 76.8837 208.465 76.89 208.246V207.935C76.89 202.154 82.4 201.673 82.4 201.242C80.69 200.471 79.71 200.361 83.26 198.757C83.2153 196.465 82.9846 194.179 82.57 191.924C82.2764 191.616 81.9395 191.353 81.57 191.142C80.92 190.551 81.21 190.231 82.43 189.138C82.4396 189.054 82.4794 188.976 82.5419 188.919C82.6044 188.862 82.6854 188.83 82.77 188.828C79.39 187.605 83.59 184.018 85.7 183.387C85.5678 182.881 85.5105 182.357 85.53 181.834C84.08 181.834 85.73 179.97 86.6 179.57C86.6 179.129 87.12 175.932 86.22 175.762C86.0055 175.657 85.7687 175.605 85.53 175.612C86.8 175.632 87 173.187 87 172.325H85.74C85.57 172.175 85.4 172.015 85.22 172.015C85.57 172.015 86.43 171.394 86.77 171.704C86.6751 171.627 86.6142 171.515 86.6 171.394C86.6255 170.952 86.7632 170.524 87 170.151C87.1298 170.046 87.2935 169.993 87.46 170.001C87.28 170.341 87.14 171.103 87.46 171.404H88.33C88.3276 171.616 88.3866 171.825 88.5 172.005C86.85 171.263 87.38 174.339 87.64 175.271C88.08 175.672 88.12 175.421 88.64 175.421C87.28 175.421 87.78 177.596 87.78 179.429C87.78 179.209 89.16 179.299 89.16 181.924C88.8736 182.189 88.6395 182.505 88.47 182.856C90.14 182.856 92.09 186.072 92.09 188.868C91.91 188.868 91.91 188.868 91.91 189.028C91.91 189.189 91.04 189.098 91.04 189.409C91.4427 189.472 91.8135 189.666 92.0954 189.962C92.3772 190.257 92.5545 190.636 92.6 191.042C92.6 191.754 92.84 190.982 92.26 191.513C91.02 191.513 91.05 197.184 91.05 198.978C93.91 198.978 91.39 201.322 91.39 201.623C94.25 204.198 96.91 202.525 96.91 208.777C96.91 208.537 97.08 208.507 97.08 208.927C100.95 212.424 97.25 213.937 96.67 213.386C96.22 214.218 96.08 218.626 96.73 219.809L97.08 220.129C97.94 220.129 97.77 219.809 98.29 220.28C99.15 220.28 99.15 221.372 99.29 221.372C98.75 221.863 97.87 222.704 97.87 223.446C96.42 226.722 96.33 242.764 98.26 246.251C98.96 246.251 99.12 247.453 99.12 248.124C107.06 246.331 101.03 247.653 109.01 247.653C108.999 247.567 109.009 247.479 109.039 247.398C109.068 247.316 109.117 247.242 109.18 247.183C108.652 246.447 108.19 245.666 107.8 244.848C107.63 244.848 107.63 244.848 107.63 245.008C107.46 244.698 107.28 244.547 107.28 244.387C107.28 244.227 117.42 242.654 118.65 243.766C118.587 243.825 118.538 243.899 118.509 243.981C118.479 244.063 118.469 244.15 118.48 244.237L118.65 244.387C117.96 244.387 117.45 246.722 117.1 246.722C117.088 246.807 117.098 246.893 117.127 246.973C117.157 247.054 117.206 247.126 117.27 247.183C117.222 247.145 117.182 247.098 117.153 247.045C117.124 246.991 117.106 246.933 117.1 246.872V247.653C117.339 247.646 117.576 247.698 117.79 247.804C119.05 247.233 119.42 246.722 121.06 246.722C121.152 246.71 121.246 246.718 121.335 246.744C121.425 246.769 121.508 246.813 121.58 246.872C121.75 247.183 121.92 247.493 122.1 247.804C122.896 247.674 123.704 247.623 124.51 247.653V247.183C130.11 244.658 141.06 226.752 142.25 221.372C142.474 220.871 142.763 220.403 143.11 219.979C143.28 219.508 143.46 219.037 143.63 218.576C143.759 218.587 143.879 218.644 143.97 218.737C143.97 219.358 144.32 221.682 145.18 221.682C144.66 221.682 144.84 221.843 145.18 221.843C146.38 226.171 151.18 231.642 153.45 235.68C153.79 235.991 154.31 236.301 154.83 236.772C155.242 236.821 155.646 236.925 156.03 237.083C156.254 237.583 156.543 238.051 156.89 238.475C156.72 238.475 156.72 238.475 156.72 238.636L156.89 238.796C156.72 238.796 156.72 238.946 156.72 239.107C156.72 239.728 156.72 241.592 157.41 241.592C157.24 241.592 157.24 241.592 157.24 241.752C158.7 243.074 160.9 246.762 162.4 247.353C162.4 247.353 172.31 248.856 173.64 249.197C174.64 248.195 175.64 247.193 176.69 246.191C176.69 245.259 177.85 245.259 178.36 245.73C178.89 245.832 179.41 245.987 179.91 246.191C179.961 246.145 180.022 246.111 180.087 246.09C180.153 246.069 180.222 246.063 180.29 246.07C180.29 246.07 179.91 244.798 180.42 245.259C180.42 244.798 181.71 244.908 182.1 244.908C182.23 246.301 182.23 245.84 183.39 246.191C184.96 247.263 186.56 248.195 188.15 249.197C188.699 249.052 189.263 248.974 189.83 248.966C190.47 249.086 191.12 249.317 191.89 249.547V247.343C191.989 247.223 192.127 247.142 192.28 247.112C192.617 247.104 192.953 247.141 193.28 247.223C194.348 247.086 195.423 247.009 196.5 246.992C196.5 246.882 196.5 246.762 196.63 246.762C196.524 246.48 196.393 246.209 196.24 245.95C196.533 245.693 196.872 245.496 197.24 245.369C197.562 244.848 198.001 244.409 198.522 244.087C199.042 243.766 199.631 243.57 200.24 243.515C199.46 242.804 200.67 237.834 200.88 237.504C201.01 237.383 201.14 237.383 201.4 237.383C201.4 238.586 201.82 242.674 202.4 243.555C203.31 244.938 206.29 244.668 206.29 246.221C205.65 246.802 206.16 247.503 206.16 248.225C206.23 248.216 206.301 248.222 206.368 248.243C206.435 248.264 206.497 248.298 206.55 248.345C206.94 247.884 207.45 247.343 207.97 247.764C208.87 247.764 210.42 247.643 211.06 248.225C212.35 248.225 213.12 249.627 213.64 250.549C213.9 250.549 213.9 249.277 214.8 249.277C214.8 249.036 214.8 248.926 214.93 248.806C214.77 248.721 214.591 248.68 214.41 248.686V248.114C215.06 247.533 214.67 246.712 214.93 246.11C215.06 246.11 215.18 246.231 215.44 246.341V247.854C216.6 247.854 215.83 248.665 215.83 249.257C216.174 249.385 216.509 249.539 216.83 249.718C216.92 250.368 217.044 251.013 217.2 251.651H217.9C217.9 251.541 217.9 251.431 218.12 251.231C218.929 251.088 219.748 251.011 220.57 251C220.44 249.367 220.44 247.744 220.44 246.231C219.79 246.11 219.54 246 219.54 245.529C219.777 245.397 220.04 245.318 220.31 245.299V242.293C220.198 241.975 220.068 241.664 219.92 241.361C220.106 241.217 220.334 241.136 220.57 241.131C220.793 240.584 221.096 240.074 221.47 239.618C221.86 237.874 221.34 237.413 223.4 237.173C224.48 234.738 226.6 233.586 228.68 232.634V230.43C228.745 230.356 228.826 230.298 228.915 230.258C229.005 230.219 229.102 230.198 229.2 230.199C229.444 230.102 229.708 230.061 229.97 230.079C229.825 229.234 229.738 228.381 229.71 227.524C229.508 227.436 229.29 227.395 229.07 227.404V226.943C229.07 226.482 229.46 226.482 229.59 226.352C229.544 225.784 229.636 225.214 229.859 224.69C230.082 224.166 230.429 223.705 230.87 223.346C231.26 223.346 231.52 222.644 231.52 222.344C231.65 222.086 231.822 221.852 232.03 221.652C232.03 221.412 231.03 216.763 232.42 218.045C232.398 219.209 232.442 220.373 232.55 221.532C232.68 221.993 232.81 222.534 232.94 223.165C233.58 223.165 234.1 223.736 234.61 223.977L235.39 226.412C235.581 226.565 235.798 226.684 236.03 226.762V227.113C235.782 227.313 235.566 227.549 235.39 227.814V228.987C235.431 229.269 235.515 229.542 235.64 229.798C236.073 229.785 236.506 229.822 236.93 229.909C236.958 230.583 237.045 231.253 237.19 231.913C240.12 231.913 242.44 234.538 243.89 237.153C244.28 237.263 244.66 237.383 245.18 237.504C245.312 238.056 245.483 238.598 245.69 239.127L246.6 239.948C246.98 240.059 247.37 240.289 247.37 240.76C246.37 240.76 247.11 243.435 247.11 243.896C247.333 243.888 247.555 243.929 247.76 244.016C247.807 244.224 247.891 244.421 248.01 244.597L247.63 245.299C247.532 245.298 247.435 245.318 247.345 245.358C247.256 245.398 247.175 245.456 247.11 245.529C247.264 246.703 247.481 247.867 247.76 249.016C247.76 248.896 247.76 248.896 247.88 248.896C250.975 248.797 254.073 248.874 257.16 249.126C257.309 249.276 257.485 249.395 257.68 249.477C257.672 249.542 257.679 249.607 257.702 249.669C257.724 249.73 257.761 249.784 257.81 249.828C258.066 249.168 258.402 248.542 258.81 247.964C260.1 247.734 261.38 247.613 262.67 247.503V243.966C262.434 243.592 262.22 243.204 262.03 242.804C266.28 237.053 268.57 239.427 275.69 239.427C276.05 239.187 276.44 238.995 276.85 238.856C277.62 238.856 277.85 238.035 278.01 237.453C278.207 237.352 278.43 237.314 278.65 237.343C278.91 237.684 279.17 238.035 279.55 238.495C280.03 238.474 280.504 238.61 280.899 238.883C281.295 239.156 281.59 239.551 281.74 240.008C282.52 240.008 286.25 240.008 286.74 239.548C286.602 239.132 286.514 238.702 286.48 238.265C286.23 238.145 286.037 237.933 285.942 237.673C285.847 237.412 285.857 237.125 285.97 236.872C286.35 236.522 287.38 235.59 288.03 235.59C288.007 234.586 288.05 233.582 288.16 232.584C289.45 232.584 288.8 235.49 289.45 236.081C289.805 236.037 290.164 236.133 290.451 236.347C290.738 236.562 290.931 236.879 290.99 237.233H294.34C294.232 236.074 294.188 234.91 294.21 233.746L293.21 232.824C292.83 232.474 292.44 232.233 292.21 232.003C292.34 231.893 292.47 231.772 292.6 231.772C293.145 231.628 293.706 231.551 294.27 231.542H294C293.87 231.311 293.74 231.191 293.74 231.081L294.9 230.38L295.29 230.029C295.264 229.484 295.307 228.939 295.42 228.406C295.29 227.013 295.16 225.73 295.16 224.398C294.9 223.937 294.16 223.396 294.38 222.765C294.38 222.654 294.51 222.654 294.64 222.654C294.668 222.403 294.757 222.162 294.9 221.953C295.013 221.742 295.197 221.579 295.42 221.492C295.228 221.234 295.054 220.963 294.9 220.68C295.129 220.384 295.387 220.113 295.67 219.869C295.617 219.822 295.555 219.787 295.488 219.766C295.421 219.745 295.35 219.739 295.28 219.749C295.388 219.465 295.519 219.19 295.67 218.927C295.8 218.236 295.93 217.655 296.06 217.073V215.089H296.58C296.472 215.9 296.428 216.717 296.45 217.534C296.604 218.249 296.818 218.95 297.09 219.628C296.96 219.628 296.83 219.628 296.83 219.749H297.61C297.74 219.749 297.87 219.869 297.99 219.979C297.981 220.181 298.026 220.382 298.12 220.56C297.967 220.69 297.838 220.846 297.74 221.021C298.244 220.891 298.76 220.813 299.28 220.791C298.925 220.227 298.538 219.685 298.12 219.167V218.466C298.881 217.733 299.701 217.063 300.57 216.462V211.402C300.31 211.172 300.05 210.941 299.8 210.701C300.029 210.405 300.287 210.133 300.57 209.889C299.92 209.428 299.67 209.188 299.67 208.496C299.766 208.148 299.944 207.829 300.19 207.565C300.418 207.266 300.676 206.99 300.96 206.743C301.212 206.483 301.52 206.284 301.86 206.162C301.73 205.581 301.21 204.418 302.38 204.418C302.386 204.13 302.473 203.849 302.63 203.607V198.256C302.63 197.795 302.12 196.513 302.5 196.162C302.363 195.951 302.277 195.711 302.25 195.461C302.63 195.461 302.5 195.23 302.89 195.581V196.864C302.96 196.855 303.031 196.861 303.098 196.882C303.165 196.903 303.227 196.937 303.28 196.984C303.203 197.034 303.139 197.102 303.093 197.182C303.048 197.263 303.023 197.353 303.02 197.445C302.89 197.445 302.89 197.445 302.89 197.565C303.15 199.569 302.76 202.104 303.41 204.078C304.41 204.078 304.18 204.889 304.31 205.581C305.08 206.292 305.86 206.984 306.63 207.795C306.616 208.111 306.66 208.427 306.76 208.727L306.37 209.779L307.14 210.13L306.75 211.132C306.5 211.132 306.37 211.132 306.24 211.252C306.24 212.875 306.24 214.508 306.37 216.142V216.602C307.085 216.898 307.675 217.433 308.04 218.115C308.027 218.431 308.071 218.747 308.17 219.047C308.321 218.901 308.497 218.782 308.69 218.697C308.69 218.236 308.3 218.115 308.69 217.414C308.79 216.07 308.964 214.732 309.21 213.406H309.72C309.56 214.063 309.473 214.735 309.46 215.41L309.85 217.504L310.24 218.206C309.978 218.187 309.716 218.225 309.47 218.316C309.47 218.667 309.72 218.667 310.11 218.667C310.29 218.932 310.51 219.168 310.76 219.368C310.754 219.531 310.8 219.693 310.89 219.829C310.63 220.29 310.11 220.761 310.63 221.222H311C311 221.923 311.27 221.923 311.91 222.153C311.92 222.248 311.967 222.334 312.04 222.394C311.78 222.735 311.39 222.855 311.39 223.326C311.14 223.522 310.921 223.755 310.74 224.017C310.589 224.174 310.5 224.38 310.49 224.598C310.62 226.352 310.74 228.095 310.87 229.838C311 230.069 312.03 230.65 311.78 230.84C311.52 230.84 311.13 231.071 311.39 231.301H311.91C311.91 231.181 311.65 231.071 312.03 231.071C312.03 231.422 313.03 231.652 313.32 231.652C313.164 231.806 313.075 232.014 313.07 232.233L313 232.223C312.631 232.348 312.291 232.545 312 232.804C311.804 232.812 311.618 232.894 311.48 233.035C311.48 233.275 311.35 235.6 311.87 235.129V234.898C312 234.788 312.51 234.317 312.76 234.548C318.41 234.548 329.45 233.405 334.67 234.788C334.723 234.742 334.785 234.707 334.852 234.686C334.919 234.666 334.99 234.659 335.06 234.668C337.62 236.061 339.06 241.451 342.46 240.369C342.51 238.435 342.57 236.502 342.68 234.568C342.41 234.247 342.13 233.916 341.91 233.566C341.68 233.496 341.68 233.496 341.58 232.794C340.69 231.953 340.69 231.953 340.75 231.792C341.36 230.79 341.24 230.51 342.52 229.859C349.99 223.406 356.17 214.829 362.76 207.154V206.633C362.02 206.633 362.39 206.182 362.86 205.992C362.807 205.778 362.773 205.56 362.76 205.34C363.59 205.451 364.25 205.12 364.25 206.182H363.86C363.788 206.391 363.75 206.612 363.75 206.833C365.68 208.837 365.68 208.837 366.07 208.897C365.96 208.386 365.85 207.895 365.79 207.354C366.174 207.042 366.582 206.761 367.01 206.513C367.124 206.029 367.271 205.553 367.45 205.09C367.12 204.549 366.966 203.919 367.01 203.286C367.107 203.215 367.221 203.17 367.34 203.156C367.612 200.584 367.688 197.995 367.57 195.411C366.96 194.77 366.96 194.77 366.85 194.319L367.34 193.928C367.382 193.762 367.46 193.608 367.57 193.477C367.596 192.938 367.738 192.41 367.986 191.931C368.235 191.452 368.584 191.032 369.01 190.702C368.876 190.276 368.915 189.815 369.12 189.419C369.17 188.898 369.22 188.417 369.28 187.936C369.55 186.002 369.55 186.002 369.83 185.672C370.163 186.283 370.299 186.983 370.22 187.676C370.33 188.317 370.5 188.968 370.66 189.609C370.678 189.829 370.715 190.047 370.77 190.261C370.94 191.413 371.77 192.265 372.1 193.567C372.16 193.697 372.26 193.888 372.37 194.078C372.71 194.279 372.71 194.279 372.93 195.08C372.64 195.205 372.362 195.356 372.1 195.531C371.93 198.286 371.81 201.673 372.7 204.278C372.541 204.543 372.414 204.826 372.32 205.12C372.255 205.542 372.28 205.972 372.394 206.383C372.508 206.795 372.707 207.177 372.98 207.505C373.31 207.825 373.7 208.026 373.7 208.607C373.431 208.785 373.188 209.001 372.98 209.248C372.98 210.921 373.04 212.685 373.14 214.348C375 215.961 381.8 222.364 383.76 222.364V219.097L384.26 218.897C384.119 218.774 384.01 218.618 383.942 218.444C383.874 218.269 383.85 218.081 383.87 217.895C384.065 217.818 384.271 217.774 384.48 217.765C384.64 216.863 384.81 215.961 384.97 215.12C385.105 215.043 385.255 214.998 385.41 214.989C385.52 215.831 385.64 216.673 385.75 217.574C385.871 217.648 385.999 217.711 386.13 217.765C386.3 219.508 386.47 221.312 386.69 223.125C389.64 224.127 392.46 226.792 394.82 228.736C395.54 228.736 395.82 228.346 396.31 227.734C396.03 227.283 396.03 227.283 396.09 226.963C396.36 225.29 396.36 225.29 396.42 220.25C396.615 220.175 396.821 220.134 397.03 220.129C397.08 222.384 397.13 224.638 397.19 226.963V228.185H397.58C397.64 229.187 397.69 230.259 397.74 231.281L399.07 231.472C398.63 233.025 398.63 233.025 398.24 233.546C398.43 234.848 397.72 236.922 398.3 237.924C398.523 237.782 398.765 237.674 399.02 237.604C399.24 238.445 398.63 239.928 398.41 240.77C398.55 243.185 398.26 247.934 399.74 249.667C399.836 249.489 399.946 249.318 400.07 249.156C400.156 250.109 400.378 251.043 400.73 251.932H401V252.383L402.48 252.573C402.438 252.124 402.422 251.672 402.43 251.221C402.562 251.138 402.714 251.092 402.87 251.09L402.92 251.691C403.079 251.69 403.237 251.71 403.39 251.752C403.78 250.75 404.08 250.75 404.87 250.75C405.187 248.283 405.371 245.801 405.42 243.315H406C406.22 245.73 406.37 247.403 406.48 248.686C406.84 248.686 406.9 248.555 407.29 248.555V247.153H407.95C408.72 244.888 410 242.704 412.1 241.732C412.562 240.187 412.728 238.569 412.59 236.962C413.03 236.381 413.03 236.381 413.92 234.057C413.86 233.055 413.81 232.123 413.75 231.221H414.31C414.25 232.223 414.2 233.285 414.2 234.377C414.192 234.765 414.208 235.154 414.25 235.54C415.31 236.962 415.25 237.664 414.97 239.548C415.74 240.84 415.31 241.742 416.74 242.393C417.741 243.362 418.599 244.469 419.29 245.68C419.46 246.131 419.62 246.682 419.84 247.163C421.72 247.353 421.84 246.07 422.77 248.445H423.33C423.38 248.054 423.44 247.674 423.5 247.353C424.05 247.483 424.6 247.613 425.21 247.804C425.26 246.802 425.32 245.94 425.38 245.028H425.93C425.99 246.972 425.99 246.972 426.2 247.413C426.64 247.543 427.09 247.674 427.59 247.804C427.59 247.223 427.59 246.642 427.64 246.07C427.568 245.199 427.663 244.321 427.92 243.485C427.97 237.233 428.03 230.971 428.14 224.779C428.047 224.664 427.972 224.536 427.92 224.398C425.56 221.642 427.58 221.873 428.69 222.203C428.26 207.094 429.38 210.561 428.47 205.04C428.08 204.589 428.08 204.589 427.91 203.627C427.46 202.825 427.78 200.962 427.86 200.01C428.93 200.01 429.99 200.08 431.06 200.08L431.62 199.88V199.108C431.377 199.057 431.137 198.993 430.9 198.918V198.206C430.95 198.146 431.06 198.146 431.17 198.146C431.166 198.11 431.169 198.074 431.179 198.04C431.189 198.005 431.207 197.973 431.23 197.946V197.635C431.78 197.375 432.07 197.224 432.68 196.974C432.73 194.649 433.05 192.214 433.11 189.96H433.44C433.44 192.285 433.72 194.749 433.72 197.134C434.44 197.325 434.88 197.445 435.65 197.705V199.118C435.313 199.131 434.979 199.175 434.65 199.248C434.584 199.415 434.527 199.586 434.48 199.759L438.08 200.15C438.21 201.212 438.32 202.264 438.52 203.306C438.434 204.14 438.189 204.949 437.8 205.691C437.743 205.744 437.705 205.815 437.69 205.891C436.97 206.733 437.36 219.428 437.3 222.203C439.5 222.203 438.46 224.278 437.86 225.69V244.397C438.037 244.621 438.201 244.855 438.35 245.098C438.13 245.359 438.13 245.359 438.13 245.87V247.153C438.15 247.306 438.187 247.458 438.24 247.603C438.656 247.486 439.081 247.403 439.51 247.353V247.804H440.28V247.353C441.591 248 443.02 248.372 444.48 248.445V247.994C444.768 248.084 445.079 248.069 445.357 247.952C445.635 247.834 445.863 247.622 446 247.353C446.183 247.557 446.351 247.774 446.5 248.004C447.44 248.064 447.44 248.064 447.77 248.325C447.94 247.724 447.95 247.633 448.54 247.804V247.283C450.81 247.744 450.81 247.744 451.86 247.613V246.712H452.58L452.75 247.804H453.3V247.153C453.393 246.856 453.524 246.573 453.69 246.311V246.05H454.24C454.3 244.768 454.35 243.475 454.41 242.183H454.07C454.24 240.57 454.46 239.017 454.68 237.473C454.74 238.055 454.85 238.636 454.96 239.217C456.28 238.315 455.9 236.311 455.79 234.768C455.738 234.437 455.718 234.101 455.73 233.766C455.813 233.693 455.904 233.63 456 233.576C456.17 232.864 456.39 232.213 456.61 231.572C456.733 231.651 456.864 231.718 457 231.772C457.06 232.604 457 232.995 457.5 233.576C457.55 235.249 457.61 236.993 457.72 238.736L458.49 238.926V237.483C458.625 237.508 458.757 237.552 458.88 237.614C459 240.084 458.98 242.56 458.82 245.028H459.21C459.27 243.866 459.32 242.704 459.38 241.541H459.93C460.21 243.866 460.1 245.8 461.2 247.744C461.31 247.543 461.31 247.543 463.64 247.613C463.642 247.392 463.679 247.172 463.75 246.962C464.3 246.962 464.35 247.223 464.75 247.674H466.3C467.13 246.06 467.35 243.345 467.52 241.541H468.07C467.953 242.127 468.012 242.734 468.24 243.285C468.4 244.517 468.57 245.74 468.79 246.962C468.857 247.108 468.913 247.259 468.96 247.413C469.23 247.543 469.56 247.674 469.89 247.804H475.42C475.533 247.721 475.67 247.675 475.81 247.674V247.153H476.59C476.69 248.375 476.81 249.597 476.92 250.82H477.47V251.16H480.07C480.136 250.705 480.226 250.253 480.34 249.808C480.613 249.75 480.892 249.726 481.17 249.738C481.23 250.138 481.28 250.519 481.34 250.9H484.77V250.84C484.77 250.639 484.77 250.639 485.43 250.78C485.65 252.002 485.93 253.224 486.2 254.447C486.379 254.507 486.548 254.595 486.7 254.707C489.09 253.705 485.4 255.098 488.07 255.098C488.459 255.108 488.847 255.149 489.23 255.218C489.923 255.463 490.656 255.575 491.39 255.549C491.39 254.767 491.39 254.056 491.44 253.355C491.881 253.297 492.326 253.273 492.77 253.285V254.567H494.43C494.82 254.246 494.82 254.246 495.7 254.046C496.093 253.86 496.501 253.709 496.92 253.595C496.857 253.234 496.82 252.869 496.81 252.503H497.2C497.25 252.824 497.3 253.214 497.36 253.595H497.8C497.8 253.535 497.86 253.475 497.91 253.405C497.91 252.693 497.97 252.042 498.02 251.401C498.19 251.341 498.35 251.271 498.57 251.21C499.84 250.209 500.78 250.629 502.22 250.76C502.39 250.439 502.55 250.118 502.72 249.858C503.085 249.781 503.457 249.738 503.83 249.728C503.83 250.83 503.83 251.992 503.88 253.144C507.71 254.547 507.56 252.543 509.72 252.824C509.598 253.185 509.619 253.58 509.78 253.926C509.876 253.951 509.967 253.992 510.05 254.046C510.24 252.533 510.48 251.11 510.77 249.597V249.277C511.537 249.025 512.348 248.94 513.15 249.026C513.09 249.217 513.04 249.407 512.98 249.597L513.54 250.048H513.93C515.26 247.313 516.26 244.447 517.52 241.672C517.501 241.646 517.475 241.626 517.445 241.613C517.415 241.601 517.382 241.597 517.35 241.602C517.41 240.6 517.52 239.668 517.63 238.766H518.18V240.83C519.7 240.62 521.28 240.179 522.77 240.059C522.866 239.683 522.997 239.318 523.16 238.966C525.28 238.806 527.58 239.237 529.57 238.576C529.478 238.321 529.405 238.06 529.35 237.794C529.927 237.648 530.459 237.362 530.9 236.962L531.03 215.36C530.92 214.709 530.03 215.039 530.03 213.997C530.311 213.852 530.611 213.744 530.92 213.677L531.58 211.553C531.52 210.781 531.47 209.999 531.41 209.298C531.268 209.279 531.138 209.21 531.043 209.102C530.949 208.994 530.897 208.855 530.897 208.712C530.897 208.568 530.949 208.43 531.043 208.322C531.138 208.214 531.268 208.144 531.41 208.126C531.454 208.016 531.511 207.911 531.58 207.815C531.58 207.104 531.64 206.452 531.69 205.811C531.961 205.738 532.239 205.694 532.52 205.681C532.45 205.912 532.413 206.151 532.41 206.392C532.57 206.843 532.74 207.294 532.96 207.815C533.202 207.96 533.427 208.131 533.63 208.326C536.42 207.394 535.77 207.645 537.28 204.128C537.886 201.237 538.291 198.308 538.49 195.361C537.49 194.198 536.89 194.068 537.94 192.846C537.952 192.456 537.989 192.068 538.05 191.683V191.172C537.61 190.712 537 190.521 537 189.75C537.385 189.539 537.791 189.368 538.21 189.239H538.32C538.584 188.228 539.188 187.34 540.03 186.724C540.53 184.85 540.1 182.205 539.93 180.271C540.039 180.128 540.167 179.999 540.31 179.89C540.713 178.781 541.403 177.799 542.31 177.045C542.31 176.273 542.37 175.502 542.42 174.79C542.323 174.738 542.232 174.674 542.15 174.6C542.057 173.838 542.132 173.065 542.37 172.335C542.539 172.326 542.708 172.347 542.87 172.396C543.09 173.047 543.47 174.53 543.03 175.051C542.93 177.816 544.3 176.724 545.03 178.778C545.15 178.843 545.253 178.936 545.33 179.05C545.406 179.163 545.454 179.293 545.47 179.429C545.529 179.511 545.604 179.579 545.69 179.63C545.563 179.826 545.472 180.043 545.42 180.271C545.36 182.004 545.31 183.748 545.25 185.561C546.14 186.333 546.14 186.333 546.3 186.844C546.463 187.191 546.65 187.526 546.86 187.846L548.57 188.237C548.583 188.497 548.62 188.755 548.68 189.008C548.374 189.187 548.077 189.381 547.79 189.589V191.202C547.96 191.202 547.96 191.202 548.35 192.876C547.42 194.679 548.48 202.635 549.29 204.609C549.515 204.623 549.737 204.667 549.95 204.739C550.01 205.13 550.06 205.581 550.12 206.032C550.994 207.421 552.237 208.538 553.71 209.258V207.485C553.16 206.262 553.16 206.262 553.16 205.671C553.16 205.551 553.16 205.481 553.22 205.42C553.44 204.418 553.32 203.096 554.49 203.226C554.49 203.807 554.49 204.449 554.59 205.1C555.2 205.36 555.2 205.36 555.37 205.671V206.072C555.203 206.358 555.072 206.665 554.98 206.984C554.92 207.555 554.87 208.136 554.81 208.787C555.408 209.477 555.794 210.327 555.92 211.232C556.168 211.378 556.425 211.509 556.69 211.623C556.502 212 556.187 212.298 555.8 212.464V212.975H556.19V213.436H555.64C555.693 219.368 555.747 225.303 555.8 231.241C555.97 231.241 555.97 231.241 555.97 229.558H556.36V234.718H556.75C556.75 237.654 556.91 239.728 556.91 234.718H563V235.369C564.21 235.369 567.22 255.9 568.22 256.24C568.131 255.964 568.057 255.683 568 255.399C568.39 255.268 568.39 255.268 569.22 255.529C570.32 253.525 574.36 251.02 575.96 249.718C576.061 249.561 576.171 249.41 576.29 249.267C576.251 249.112 576.197 248.961 576.13 248.816C576.25 248.816 576.29 248.094 576.29 246.621C576.413 246.568 576.547 246.548 576.68 246.561H577C577.13 247.954 577.26 248.766 577.72 248.816C580.09 248.425 582.55 247.012 585.29 247.012C585.4 246.752 585.4 246.752 586.18 246.692C587.28 245.69 586.29 244.497 586.9 243.205C587.51 243.205 587.51 245.279 587.51 245.72C588.18 246.337 588.88 246.919 589.61 247.463C590.55 247.463 591.49 247.142 591.93 248.305H592.1C593.8 248.415 595.1 248.305 596.91 248.305C596.91 248.114 597.41 246.591 597.41 246.461H624V343ZM433.8 210.571C432.41 210.27 432.36 210.811 432.03 210.961C431.25 212.655 432.21 214.087 433.64 213.867C434.49 213.456 434.93 213.025 433.8 210.571ZM384.58 213.086C384.58 212.084 384.42 212.084 385.36 211.793C385.253 212.218 385.176 212.65 385.13 213.086H384.58ZM369.34 183.127C369.17 183.066 368.88 179.8 368.72 179.73C368.695 179.047 368.808 178.365 369.05 177.726H369.49C369.629 179.523 369.579 181.33 369.34 183.117V183.127ZM83.5 215.41C83.0201 214.71 82.7356 213.894 82.6759 213.047C82.6161 212.199 82.7832 211.352 83.16 210.591C82.81 208.406 88.88 207.364 90.56 210.591C90.92 210.851 90.88 214.699 89.88 215.41C87.58 218.065 83.5 215.59 83.5 215.41ZM201 235.81H201.52C201.505 236.205 201.548 236.6 201.65 236.983C200.78 236.983 200.48 236.291 201 235.81ZM84.47 211.763C86.37 210.05 86.62 208.597 89.39 212.324C88.8 216.813 84.44 215.14 84.44 211.733L84.47 211.763ZM294 236.983C293.87 236.742 293.61 236.632 294 236.632V236.983Z" fill="black"/>
</g>
<defs>
<clipPath id="clip0_1107_2209">
<rect width="624" height="343" fill="white"/>
</clipPath>
</defs>
</svg>
